HIERARCHY
ROOT Hips
{
	OFFSET 0.000000 0.000000 0.000000
	CHANNELS 6 Xposition Yposition Zposition Yrotation Xrotation Zrotation
	JOINT Chest
	{
		OFFSET 0.000000 -0.009281 11.569106
		CHANNELS 3 Yrotation Xrotation Zrotation
		JOINT Chest2
		{
			OFFSET -0.000000 0.016865 9.269641
			CHANNELS 3 Yrotation Xrotation Zrotation
			JOINT Chest3
			{
				OFFSET -0.000000 0.000001 8.374491
				CHANNELS 3 Yrotation Xrotation Zrotation
				JOINT Chest4
				{
					OFFSET -0.000000 0.000001 8.374493
					CHANNELS 3 Yrotation Xrotation Zrotation
					JOINT Neck
					{
						OFFSET -0.000000 0.000002 12.152554
						CHANNELS 3 Yrotation Xrotation Zrotation
						JOINT Head
						{
							OFFSET -0.000000 0.040101 7.802319
							CHANNELS 3 Yrotation Xrotation Zrotation
							End Site
							{
								OFFSET -0.000000 0.020947 14.853096
							}
						}
					}
					JOINT RightCollar
					{
						OFFSET 2.894404 0.000001 6.791374
						CHANNELS 3 Yrotation Xrotation Zrotation
						JOINT RightShoulder
						{
							OFFSET 13.574684 0.000001 0.000000
							CHANNELS 3 Yrotation Xrotation Zrotation
							JOINT RightElbow
							{
								OFFSET 23.923903 0.000002 0.000000
								CHANNELS 3 Yrotation Xrotation Zrotation
								JOINT RightWrist
								{
									OFFSET 19.846718 0.012767 0.000000
									CHANNELS 3 Yrotation Xrotation Zrotation
									End Site
									{
										OFFSET 14.973145 0.000001 0.000000
									}
								}
							}
						}
					}
					JOINT LeftCollar
					{
						OFFSET -2.894404 0.000001 6.791374
						CHANNELS 3 Yrotation Xrotation Zrotation
						JOINT LeftShoulder
						{
							OFFSET -13.574684 -0.000001 0.000000
							CHANNELS 3 Yrotation Xrotation Zrotation
							JOINT LeftElbow
							{
								OFFSET -23.923903 -0.000002 0.000000
								CHANNELS 3 Yrotation Xrotation Zrotation
								JOINT LeftWrist
								{
									OFFSET -19.846718 0.012763 0.000000
									CHANNELS 3 Yrotation Xrotation Zrotation
									End Site
									{
										OFFSET -14.973145 -0.000001 0.000000
									}
								}
							}
						}
					}
				}
			}
		}
	}
	JOINT RightHip
	{
		OFFSET 9.469263 0.004643 0.045487
		CHANNELS 3 Yrotation Xrotation Zrotation
		JOINT RightKnee
		{
			OFFSET 0.000000 0.002661 -40.478676
			CHANNELS 3 Yrotation Xrotation Zrotation
			JOINT RightAnkle
			{
				OFFSET 0.000000 0.049106 -35.224068
				CHANNELS 3 Yrotation Xrotation Zrotation
				JOINT RightToe
				{
					OFFSET -0.000001 12.539529 -6.151390
					CHANNELS 3 Yrotation Xrotation Zrotation
					End Site
					{
						OFFSET -0.000001 5.044994 -1.291870
					}
				}
			}
		}
	}
	JOINT LeftHip
	{
		OFFSET -9.469263 0.004641 0.045487
		CHANNELS 3 Yrotation Xrotation Zrotation
		JOINT LeftKnee
		{
			OFFSET 0.000000 0.002661 -40.478676
			CHANNELS 3 Yrotation Xrotation Zrotation
			JOINT LeftAnkle
			{
				OFFSET 0.000000 0.049106 -35.224068
				CHANNELS 3 Yrotation Xrotation Zrotation
				JOINT LeftToe
				{
					OFFSET -0.000001 12.539529 -6.151390
					CHANNELS 3 Yrotation Xrotation Zrotation
					End Site
					{
						OFFSET -0.000001 5.044994 -1.291870
					}
				}
			}
		}
	}
}
MOTION
Frames: 5
Frame Time: 0.016667
15.989849 5.721845 79.469398 -4.789251 2.841044 -98.214179 -2.395714 -4.298600 -0.332005 -1.110608 -1.871060 -0.207149 -1.110608 -1.871060 -0.207148 -0.833516 -1.402924 -0.158750 4.348536 -17.206428 -8.051325 5.259328 4.268884 -13.379506 8.911456 4.764932 -1.568885 46.554539 -18.719021 -11.255880 21.264886 -38.148335 44.840851 -28.877869 40.065640 66.377964 -6.723820 4.436391 -2.816444 -42.934897 -6.741947 11.544202 -42.295219 -56.106514 -19.879648 17.185454 16.787032 -58.866580 -13.071537 10.771149 -16.707553 28.614077 -66.257049 -34.429447 7.834572 -19.847502 18.095461 4.035726 -0.789948 2.523711 -16.254168 7.077113 -16.099027 -2.906805 -28.284604 10.124581 7.838322 13.015436 10.417763 0.574612 0.160543 0.010296 
16.132982 5.723378 79.509789 -4.685350 2.835448 -98.185465 -2.378035 -4.253281 -0.354758 -1.106592 -1.863144 -0.212228 -1.106593 -1.863144 -0.212228 -0.830519 -1.396979 -0.162531 4.330237 -17.192109 -8.051407 5.224506 4.294067 -13.386270 8.912594 4.735239 -1.538271 46.562721 -18.689790 -11.285138 21.252200 -38.171728 44.885336 -28.864919 40.034628 66.396699 -6.729468 4.386120 -2.831863 -42.889712 -6.823462 11.507143 -42.403331 -56.094165 -19.795826 17.211751 16.807149 -58.891038 -13.290612 11.404767 -16.119059 28.912122 -66.338062 -34.847581 6.170956 -17.865652 16.878825 5.132695 -0.885458 3.169862 -16.245656 7.002173 -16.179021 -2.920239 -28.163921 10.130581 7.880613 13.030601 10.497112 0.461973 0.166327 0.005338 
16.271446 5.740430 79.546600 -4.586450 2.792438 -98.156867 -2.331535 -4.219514 -0.375470 -1.093511 -1.857723 -0.215547 -1.093511 -1.857723 -0.215548 -0.820717 -1.392911 -0.164973 4.304117 -17.177618 -8.045720 5.177213 4.319173 -13.385119 8.909749 4.680915 -1.490576 46.537405 -18.653156 -11.282349 21.258586 -38.206780 44.935166 -28.859766 40.032493 66.423562 -6.742749 4.326100 -2.832415 -42.880259 -6.924534 11.456096 -42.448622 -56.058808 -19.744480 17.228893 16.820994 -58.913305 -13.442459 12.107678 -15.544624 28.656475 -66.288318 -34.877272 4.434503 -16.426600 15.868870 2.279164 7.293382 2.619634 -16.237101 6.910703 -16.305659 -2.910234 -28.038808 10.091499 8.005407 13.037517 10.698778 0.319722 0.157485 0.000824 
16.418114 5.789196 79.583694 -4.510037 2.758192 -98.115435 -2.302263 -4.210786 -0.406602 -1.074803 -1.855031 -0.219298 -1.074804 -1.855031 -0.219299 -0.806699 -1.390893 -0.167725 4.280800 -17.165869 -8.033683 5.137458 4.339592 -13.371194 8.902497 4.643155 -1.453978 46.487244 -18.663789 -11.262098 21.292143 -38.242007 44.986153 -28.859219 40.047540 66.445002 -6.743455 4.260573 -2.824827 -42.922200 -6.989967 11.405550 -42.404242 -56.049352 -19.745512 17.246629 16.819045 -58.911659 -13.574876 12.843334 -14.986403 27.812669 -66.234031 -34.491581 3.007737 -15.373040 15.240526 0.820583 12.845536 2.095451 -16.269101 6.790504 -16.472307 -2.873846 -27.884859 10.012815 8.197313 13.007158 10.838108 0.163718 0.141486 -0.003483 
16.553207 5.849906 79.616409 -4.450285 2.745555 -98.060637 -2.303475 -4.222510 -0.445254 -1.054945 -1.856370 -0.222332 -1.054945 -1.856370 -0.222333 -0.791816 -1.391899 -0.169940 4.272186 -17.160061 -8.020444 5.125671 4.350122 -13.349832 8.889943 4.611872 -1.429023 46.435895 -18.712275 -11.233636 21.324414 -38.255876 45.055794 -28.864755 40.053069 66.454168 -6.734075 4.192974 -2.822685 -42.977435 -7.002301 11.362190 -42.337675 -56.064590 -19.763523 17.264249 16.785842 -58.885813 -13.731077 13.587525 -14.426150 26.764352 -66.246216 -33.890828 1.992289 -14.344437 14.919174 -0.051343 16.928726 1.631436 -16.344137 6.628996 -16.659576 -2.812118 -27.669146 9.884635 8.425403 12.904848 11.024581 0.020585 0.152293 0.003835 
